<svg width="33" height="47" viewBox="0 0 33 47" fill="none" xmlns="http://www.w3.org/2000/svg">
<path d="M12.067 0.542438C14.7675 0.542438 16.9066 1.33122 18.4842 2.90879C20.0885 4.45961 20.8906 6.74575 20.8906 9.76718V22H17.0403V10.2084C17.0403 8.14951 16.5457 6.59868 15.5563 5.55589C14.567 4.51309 13.1499 3.99169 11.3049 3.99169C9.21933 3.99169 7.57492 4.60667 6.37169 5.83664C5.16846 7.03987 4.56685 8.77786 4.56685 11.0506V22H0.716521V0.742976H4.40642V3.95158C5.18183 2.85531 6.22463 2.01305 7.53481 1.42481C8.87173 0.836561 10.3825 0.542438 12.067 0.542438Z" fill="white"/>
<path d="M28.1939 22.4125C26.9105 22.4125 25.8104 21.9771 24.8937 21.1062C23.9769 20.1894 23.5185 19.0435 23.5185 17.6684C23.5185 16.3391 23.9769 15.239 24.8937 14.3681C25.8104 13.4514 26.9105 12.993 28.1939 12.993C29.4774 12.993 30.5546 13.4284 31.4255 14.2993C32.2964 15.1703 32.7318 16.2933 32.7318 17.6684C32.7318 19.0435 32.2735 20.1894 31.3567 21.1062C30.4858 21.9771 29.4315 22.4125 28.1939 22.4125Z" fill="#99A3D2"/>
<path d="M24.7668 27.56C27.1908 27.56 29.1108 28.268 30.5268 29.684C31.9428 31.076 32.6508 33.176 32.6508 35.984V47H28.1508V36.56C28.1508 34.88 27.7788 33.62 27.0348 32.78C26.2908 31.916 25.2228 31.484 23.8308 31.484C22.3188 31.484 21.1068 31.988 20.1948 32.996C19.2828 33.98 18.8268 35.396 18.8268 37.244V47H14.3268V36.56C14.3268 34.88 13.9548 33.62 13.2108 32.78C12.4668 31.916 11.3988 31.484 10.0068 31.484C8.47078 31.484 7.24678 31.976 6.33478 32.96C5.44678 33.944 5.00278 35.372 5.00278 37.244V47H0.502781V27.776H4.78678V30.224C5.50678 29.36 6.40678 28.7 7.48678 28.244C8.56678 27.788 9.76678 27.56 11.0868 27.56C12.5268 27.56 13.7988 27.836 14.9028 28.388C16.0308 28.916 16.9188 29.708 17.5668 30.764C18.3588 29.756 19.3788 28.976 20.6268 28.424C21.8748 27.848 23.2548 27.56 24.7668 27.56Z" fill="#FFCD92"/>
</svg>
